<svg xmlns="http://www.w3.org/2000/svg" width="1400" height="642.75"><rect width="1400" height="642.75" rx="5" ry="5" class="a"/><svg y="0%" x="0%"><circle cx="20" cy="20" r="6" fill="#ff5f58"/><circle cx="40" cy="20" r="6" fill="#ffbd2e"/><circle cx="60" cy="20" r="6" fill="#18c132"/></svg><svg height="542.75" viewBox="0 0 132 54.275" width="1320" x="35" xmlns="http://www.w3.org/2000/svg" y="70"><style>.inserted-lf{fill:#999999;fill-opacity:.75;font-variant-position:sub;font-size:75%}.container{font-family:'JetBrains Mono','Monaco','Consolas','Menlo','Bitstream Vera Sans Mono','Lucida Console','Ubuntu Mono','Meslo for Powerline','Meslo LG M for Powerline','Powerline Symbols','Monospace','monospace'}.container>g{animation-play-state:running}.container_end{fill:whitesmoke;mix-blend-mode:soft-light;opacity:0;transition:opacity .2s ease-in-out}.container:hover>g{animation-play-state:paused}.container{pointer-events:all}.container:hover{cursor:wait}.container:hover>.container_end{opacity:1}.container>g>svg>svg>*{transform: scaleY(.95);}@keyframes l{0%{transform:translateX(0)}.1%{transform:translateX(-132px)}.6%{transform:translateX(-264px)}14.2%{transform:translateX(-396px)}21.2%{transform:translateX(-528px)}27.9%{transform:translateX(-660px)}28%{transform:translateX(-924px)}34.3%{transform:translateX(-1056px)}34.4%{transform:translateX(-1320px)}34.6%{transform:translateX(-1716px)}41.2%{transform:translateX(-1848px)}47.7%{transform:translateX(-2112px)}54.2%{transform:translateX(-2244px)}60.8%{transform:translateX(-2508px)}67.3%{transform:translateX(-2640px)}73.8%{transform:translateX(-2772px)}73.9%{transform:translateX(-2904px)}80.4%{transform:translateX(-3036px)}87%{transform:translateX(-3300px)}93.5%{transform:translateX(-3432px)}to{transform:translateX(-3564px)}}.a{fill:#282d35}.f{fill:#b9bfca;white-space:pre}.g{fill:#6f7783}.g,.h,.i{white-space:pre}.h{fill:#e88388;font-weight:700}.i{fill:#b9c0cb}</style><g class="container" font-size="1.67"><defs><symbol id="1"><text y="1.67" class="f">❱</text><text x="2.004" y="1.67" class="f">./pi</text></symbol><symbol id="2"><text y="1.67" class="g">❱</text><text x="2.004" y="1.67" class="g">./pi</text></symbol><symbol id="3"><text x="1.002" y="1.67" class="h">ϟ</text><text x="3.006" y="1.67" class="i">pi</text><a href="failed:"><title>Displayed as link in supporting terminal emulators</title><text x="6.012" y="1.67" class="i">failed:</text></a><text x="14.028" y="1.67" class="h">1</text><text x="16.032" y="1.67" class="h">↩</text><text x="18.036" y="1.67" class="i">head</text><text x="23.046" y="1.67" class="i">-c</text><text x="26.052" y="1.67" class="i">3</text></symbol><symbol id="4"><text x="5.01" y="1.67" class="i">at</text><text x="8.016" y="1.67" class="i">main(./pi:65)</text></symbol><symbol id="5"><text x="1.002" y="1.67" class="h">ϟ</text><text x="3.006" y="1.67" class="i">pi</text><a href="failed:"><title>Displayed as link in supporting terminal emulators</title><text x="6.012" y="1.67" class="i">failed:</text></a><text x="14.028" y="1.67" class="h">1</text><text x="16.032" y="1.67" class="h">↩</text><text x="18.036" y="1.67" class="i">opts+=(&quot;--name&quot;</text><text x="34.068" y="1.67" class="i">&quot;$wrapper_name--$(head</text><text x="57.114" y="1.67" class="i">/dev/urandom</text><text x="70.14" y="1.67" class="i">|</text><text x="72.144" y="1.67" class="i">LC_ALL=C.UTF-8</text><text x="87.174" y="1.67" class="i">tr</text><text x="90.18" y="1.67" class="i">-dc</text><text x="94.188" y="1.67" class="i">A-Za-z0-9</text><text x="104.208" y="1.67" class="i">2&gt;/dev/null</text><text x="116.232" y="1.67" class="i">|</text><text x="118.236" y="1.67" class="i">head</text><text x="123.246" y="1.67" class="i">-c</text><text x="126.252" y="1.67" class="i">3)&quot;)</text></symbol><symbol id="6"><text x="5.01" y="1.67" class="i">at</text><text x="8.016" y="1.67" class="i">main(./pi:65)</text><text x="128.256" y="1.67" class="h">↩</text><text x="130.26" y="1.67" class="h">1</text></symbol><symbol id="7"><text y="1.67" class="i">5</text></symbol><symbol id="8"><text y="1.67" class="i">4</text></symbol><symbol id="9"><text y="1.67" class="i">3</text></symbol><symbol id="10"><text y="1.67" class="i">2</text></symbol><symbol id="11"><text y="1.67" class="i">1</text></symbol><symbol id="a"><path fill="transparent" d="M0 0h132v26H0z"/></symbol><symbol id="b"><path fill="#6f7683" d="M0 0h1.102v2.171H0z"/></symbol></defs><path class="a" d="M0 0h132v54.275H0z"/><g style="animation-duration:7.702861s;animation-iteration-count:infinite;animation-name:l;animation-timing-function:steps(1,end)"><svg width="3696"><svg><use href="#a"/><use href="#b" x="-.004"/></svg><svg x="132"><use href="#a"/><use href="#b" x="-.004"/></svg><svg x="264"><use href="#a"/><use href="#b" x="1.996"/><text y="1.67" class="f">❱</text></svg><svg x="396"><use href="#a"/><use href="#b" x="5.996"/><use href="#1"/></svg><svg x="528"><use href="#a"/><use href="#1"/></svg><svg x="660"><use href="#a"/><use href="#b" x="5.996"/><use href="#1"/></svg><svg x="792"><use href="#a"/><use href="#b" x="-.004" y="2.146"/><use href="#2"/></svg><svg x="924"><use href="#a"/><use href="#2"/></svg><svg x="1056"><use href="#a"/><use href="#2"/></svg><svg x="1188"><use href="#a"/><use href="#b" x="-.004" y="6.488"/><use href="#2"/><use href="#3" y="2.171"/><use href="#4" y="4.342"/></svg><svg x="1320"><use href="#a"/><use href="#b" x="-.004" y="10.83"/><use href="#2"/><use href="#3" y="2.171"/><use href="#4" y="4.342"/><use href="#5" y="6.513"/><use href="#4" y="8.684"/></svg><svg x="1452"><use href="#a"/><use href="#b" x="-.004" y="13.001"/><use href="#2"/><use href="#3" y="2.171"/><use href="#4" y="4.342"/><use href="#5" y="6.513"/><use href="#6" y="8.684"/></svg><svg x="1584"><use href="#a"/><use href="#b" x="-.004" y="15.172"/><use href="#2"/><use href="#3" y="2.171"/><use href="#4" y="4.342"/><use href="#5" y="6.513"/><use href="#6" y="8.684"/></svg><svg x="1716"><use href="#a"/><use href="#2"/><use href="#3" y="2.171"/><use href="#4" y="4.342"/><use href="#5" y="6.513"/><use href="#6" y="8.684"/><use href="#7" y="15.197"/></svg><svg x="1848"><use href="#a"/><use href="#b" x="-.004" y="15.172"/><use href="#2"/><use href="#3" y="2.171"/><use href="#4" y="4.342"/><use href="#5" y="6.513"/><use href="#6" y="8.684"/><use href="#7" y="15.197"/></svg><svg x="1980"><use href="#a"/><use href="#2"/><use href="#3" y="2.171"/><use href="#4" y="4.342"/><use href="#5" y="6.513"/><use href="#6" y="8.684"/><use href="#7" y="15.197"/></svg><svg x="2112"><use href="#a"/><use href="#2"/><use href="#3" y="2.171"/><use href="#4" y="4.342"/><use href="#5" y="6.513"/><use href="#6" y="8.684"/><use href="#8" y="15.197"/></svg><svg x="2244"><use href="#a"/><use href="#b" x="-.004" y="15.172"/><use href="#2"/><use href="#3" y="2.171"/><use href="#4" y="4.342"/><use href="#5" y="6.513"/><use href="#6" y="8.684"/><use href="#8" y="15.197"/></svg><svg x="2376"><use href="#a"/><use href="#2"/><use href="#3" y="2.171"/><use href="#4" y="4.342"/><use href="#5" y="6.513"/><use href="#6" y="8.684"/><use href="#8" y="15.197"/></svg><svg x="2508"><use href="#a"/><use href="#2"/><use href="#3" y="2.171"/><use href="#4" y="4.342"/><use href="#5" y="6.513"/><use href="#6" y="8.684"/><use href="#9" y="15.197"/></svg><svg x="2640"><use href="#a"/><use href="#b" x="-.004" y="15.172"/><use href="#2"/><use href="#3" y="2.171"/><use href="#4" y="4.342"/><use href="#5" y="6.513"/><use href="#6" y="8.684"/><use href="#9" y="15.197"/></svg><svg x="2772"><use href="#a"/><use href="#2"/><use href="#3" y="2.171"/><use href="#4" y="4.342"/><use href="#5" y="6.513"/><use href="#6" y="8.684"/><use href="#9" y="15.197"/></svg><svg x="2904"><use href="#a"/><use href="#2"/><use href="#3" y="2.171"/><use href="#4" y="4.342"/><use href="#5" y="6.513"/><use href="#6" y="8.684"/><use href="#10" y="15.197"/></svg><svg x="3036"><use href="#a"/><use href="#b" x="-.004" y="15.172"/><use href="#2"/><use href="#3" y="2.171"/><use href="#4" y="4.342"/><use href="#5" y="6.513"/><use href="#6" y="8.684"/><use href="#10" y="15.197"/></svg><svg x="3168"><use href="#a"/><use href="#2"/><use href="#3" y="2.171"/><use href="#4" y="4.342"/><use href="#5" y="6.513"/><use href="#6" y="8.684"/><use href="#10" y="15.197"/></svg><svg x="3300"><use href="#a"/><use href="#2"/><use href="#3" y="2.171"/><use href="#4" y="4.342"/><use href="#5" y="6.513"/><use href="#6" y="8.684"/><use href="#11" y="15.197"/></svg><svg x="3432"><use href="#a"/><use href="#b" x="-.004" y="15.172"/><use href="#2"/><use href="#3" y="2.171"/><use href="#4" y="4.342"/><use href="#5" y="6.513"/><use href="#6" y="8.684"/><use href="#11" y="15.197"/></svg><svg x="3564"><use href="#a"/><use href="#2"/><use href="#3" y="2.171"/><use href="#4" y="4.342"/><use href="#5" y="6.513"/><use href="#6" y="8.684"/><use href="#11" y="15.197"/></svg></svg></g><svg height="100%" width="100%" viewBox="0 0 100 100" class="container_end"><text text-anchor="middle" alignment-baseline="central"><tspan y="50" x="50" style="font-size: 50px;">❚❚</tspan></text></svg></g></svg></svg>
